<svg width="12" height="20" viewBox="0 0 12 20" fill="none" xmlns="http://www.w3.org/2000/svg">
<path d="M3.5 4C3.5 3.33696 3.76339 2.70107 4.23223 2.23223C4.70107 1.76339 5.33696 1.5 6 1.5V0.5C5.07174 0.5 4.1815 0.868749 3.52513 1.52513C2.86875 2.1815 2.5 3.07174 2.5 4H3.5ZM3.5 9.5V4H2.5V9.5H3.5ZM1.5 14C1.5 12.69 2.06 11.51 2.955 10.687L2.278 9.951C1.71758 10.4661 1.27019 11.092 0.964137 11.7889C0.658086 12.4859 0.50004 13.2388 0.5 14H1.5ZM6 18.5C4.80653 18.5 3.66193 18.0259 2.81802 17.182C1.97411 16.3381 1.5 15.1935 1.5 14H0.5C0.5 15.4587 1.07946 16.8576 2.11091 17.8891C3.14236 18.9205 4.54131 19.5 6 19.5V18.5ZM10.5 14C10.5 15.1935 10.0259 16.3381 9.18198 17.182C8.33807 18.0259 7.19347 18.5 6 18.5V19.5C7.45869 19.5 8.85764 18.9205 9.88909 17.8891C10.9205 16.8576 11.5 15.4587 11.5 14H10.5ZM9.045 10.687C9.5036 11.1085 9.86971 11.6205 10.1202 12.1908C10.3706 12.7611 10.5 13.3771 10.5 14H11.5C11.5 13.2388 11.3419 12.4859 11.0359 11.7889C10.7298 11.092 10.2824 10.4661 9.722 9.951L9.045 10.687ZM8.5 4V9.5H9.5V4H8.5ZM6 1.5C6.66304 1.5 7.29893 1.76339 7.76777 2.23223C8.23661 2.70107 8.5 3.33696 8.5 4H9.5C9.5 3.07174 9.13125 2.1815 8.47487 1.52513C7.8185 0.868749 6.92826 0.5 6 0.5V1.5ZM9.722 9.951C9.65614 9.8952 9.60245 9.82647 9.56427 9.74906C9.52608 9.67165 9.5042 9.58722 9.5 9.501H8.5C8.5 9.98 8.731 10.398 9.045 10.687L9.722 9.951ZM2.5 9.501C2.4958 9.58722 2.47392 9.67165 2.43573 9.74906C2.39755 9.82647 2.34386 9.8952 2.278 9.951L2.955 10.687C3.269 10.398 3.5 9.98 3.5 9.5L2.5 9.501Z" fill="black"/>
<path d="M6 16.5C7.38071 16.5 8.5 15.3807 8.5 14C8.5 12.6193 7.38071 11.5 6 11.5C4.61929 11.5 3.5 12.6193 3.5 14C3.5 15.3807 4.61929 16.5 6 16.5Z" stroke="black"/>
</svg>
