<svg width="35" height="35" viewBox="0 0 35 35" fill="none" xmlns="http://www.w3.org/2000/svg">
<path d="M17.5 35C27.165 35 35 27.165 35 17.5C35 7.83502 27.165 0 17.5 0C7.83502 0 0 7.83502 0 17.5C0 27.165 7.83502 35 17.5 35Z" fill="#003D2E"/>
<path opacity="0.2" d="M17.5001 6.5625C10.8829 6.5625 5.46881 11.9766 5.46881 18.5938C5.46881 25.2109 10.8829 30.625 17.5001 30.625C19.4141 30.625 21.3282 30.1875 23.0235 29.3125C23.5704 29.0391 23.7891 28.3828 23.5157 27.8359C23.2422 27.2891 22.586 27.0703 22.0391 27.3438C20.6172 28.0547 19.1407 28.4375 17.5547 28.4375C12.1407 28.4375 7.711 24.0078 7.711 18.5938C7.711 13.1797 12.1407 8.75 17.5547 8.75C22.9688 8.75 27.3985 13.1797 27.3985 18.5938C27.3985 20.2344 26.961 21.875 26.1954 23.2969C25.211 22.5312 23.7891 21 23.7891 18.6484V13.8359C23.7891 13.2344 23.2969 12.7422 22.6954 12.7422C22.0938 12.7422 21.6016 13.2344 21.6016 13.8359V13.8906C20.5079 12.9609 19.086 12.3594 17.5547 12.3594C14.1094 12.3594 11.3204 15.1484 11.3204 18.5938C11.3204 22.0391 14.0547 24.8281 17.5001 24.8281C19.5235 24.8281 21.3282 23.8437 22.4766 22.3125C23.7344 24.6094 25.8672 25.7578 25.9766 25.8125C26.4688 26.0859 27.0704 25.9219 27.3985 25.4844C28.8204 23.4609 29.5313 21.1094 29.5313 18.5938C29.5313 11.9766 24.1172 6.5625 17.5001 6.5625ZM17.5001 22.6406C15.2579 22.6406 13.4532 20.8359 13.4532 18.5938C13.4532 16.3516 15.2579 14.5469 17.5001 14.5469C19.7422 14.5469 21.5469 16.3516 21.5469 18.5938C21.5469 20.8359 19.7422 22.6406 17.5001 22.6406Z" fill="#231F20"/>
<path d="M17.5001 29.5312C10.8829 29.5312 5.46881 24.1172 5.46881 17.5C5.46881 10.8828 10.8829 5.46875 17.5001 5.46875C24.1172 5.46875 29.5313 10.8828 29.5313 17.5C29.5313 19.9609 28.7657 22.3672 27.3985 24.3906C27.0704 24.8281 26.4688 24.9922 25.9766 24.7188C25.8126 24.6094 21.5469 22.4219 21.5469 17.5547V12.7422C21.5469 12.1406 22.0391 11.6484 22.6407 11.6484C23.2422 11.6484 23.7344 12.1406 23.7344 12.7422V17.5547C23.7344 19.9062 25.1563 21.4375 26.1407 22.2031C26.9063 20.7812 27.3438 19.1406 27.3438 17.5C27.3438 12.0859 22.9141 7.65625 17.5001 7.65625C12.086 7.65625 7.65631 12.0859 7.65631 17.5C7.65631 22.9141 12.086 27.3438 17.5001 27.3438C19.086 27.3438 20.6172 26.9609 21.9844 26.25C22.5313 25.9766 23.1876 26.1953 23.461 26.7422C23.7344 27.2891 23.5157 27.9453 22.9688 28.2187C21.3282 29.0937 19.4141 29.5312 17.5001 29.5312Z" fill="white"/>
<path d="M17.5001 13.4531C19.7423 13.4531 21.547 15.2578 21.547 17.5C21.547 19.7422 19.7423 21.5469 17.5001 21.5469C15.2579 21.5469 13.4532 19.7422 13.4532 17.5C13.4532 15.2578 15.2579 13.4531 17.5001 13.4531ZM17.5001 11.2656C14.0548 11.2656 11.2657 14.0547 11.2657 17.5C11.2657 20.9453 14.0548 23.7344 17.5001 23.7344C20.9454 23.7344 23.7345 20.9453 23.7345 17.5C23.7345 14.0547 20.9454 11.2656 17.5001 11.2656Z" fill="white"/>
</svg>
