<svg width="35" height="35" viewBox="0 0 35 35" fill="none" xmlns="http://www.w3.org/2000/svg">
<path d="M17.5 35C27.165 35 35 27.165 35 17.5C35 7.83502 27.165 0 17.5 0C7.83502 0 0 7.83502 0 17.5C0 27.165 7.83502 35 17.5 35Z" fill="#003D2E"/>
<path opacity="0.2" d="M15.8594 13.8359C15.6406 11.2109 12.9062 9.95313 12.7969 9.89844C12.6328 9.84375 12.5234 9.84375 12.4141 9.84375C9.24219 10.3906 8.80469 12.1953 8.75 12.3047V12.6328C12.5234 24.3359 20.3438 26.4687 22.9141 27.1797C23.1328 27.2344 23.2969 27.2891 23.4062 27.3437C23.4609 27.3437 23.5156 27.3984 23.5703 27.3984C23.6797 27.3984 23.7344 27.3984 23.8437 27.3437C23.8984 27.2891 25.7578 26.4141 26.25 23.5703C26.25 23.4609 26.25 23.2969 26.1953 23.1875C26.1406 23.1328 25.1562 21.2734 22.4766 20.6172C22.3125 20.5625 22.0937 20.6172 21.9297 20.7266C21.0547 21.4375 19.9062 22.2031 19.4141 22.3125C16.0234 20.6719 14.1094 17.4453 14.0547 16.8437C14 16.5156 14.7656 15.3125 15.6953 14.3281C15.8047 14.2187 15.8594 14 15.8594 13.8359Z" fill="#231F20"/>
<path d="M15.8594 12.7422C15.6406 10.1172 12.9062 8.85938 12.7969 8.80469C12.6328 8.75 12.5234 8.75 12.4141 8.75C9.24219 9.29687 8.80469 11.1016 8.75 11.2109V11.5391C12.5234 23.2422 20.3438 25.375 22.9141 26.0859C23.1328 26.1406 23.2969 26.1953 23.4062 26.25C23.4609 26.25 23.5156 26.3047 23.5703 26.3047C23.6797 26.3047 23.7344 26.3047 23.8437 26.25C23.8984 26.1953 25.7578 25.3203 26.25 22.4766C26.25 22.3672 26.25 22.2031 26.1953 22.0937C26.1406 22.0391 25.1562 20.1797 22.4766 19.5234C22.3125 19.4687 22.0937 19.5234 21.9297 19.6328C21.0547 20.3437 19.9062 21.1094 19.4141 21.2187C16.0234 19.5781 14.1094 16.3516 14.0547 15.75C14 15.4219 14.7656 14.2187 15.6953 13.2344C15.8047 13.125 15.8594 12.9062 15.8594 12.7422Z" fill="white"/>
</svg>
