<?xml version="1.0" encoding="UTF-8"?>
<svg id="Layer_1" xmlns="http://www.w3.org/2000/svg" xmlns:xlink="http://www.w3.org/1999/xlink" viewBox="0 0 1200 1200">
  <defs>
    <style>
      .cls-1 {
        fill: none;
      }

      .cls-2 {
        fill: #78c044;
        fill-rule: evenodd;
      }

      .cls-3 {
        fill: url(#New_Pattern_Swatch_2);
      }
    </style>
    <pattern id="New_Pattern_Swatch_2" data-name="New Pattern Swatch 2" x="0" y="0" width="212" height="226" patternTransform="translate(1392.99 -1956.48)" patternUnits="userSpaceOnUse" viewBox="0 0 212 226">
      <g>
        <rect class="cls-1" width="212" height="226"/>
        <path class="cls-2" d="M265.05,170.23c-.96-1.62-2.1-3.15-3.42-4.55-.59-.62-1.2-1.22-1.86-1.78-3.87-3.35-10.59-6.36-17.98-6.68-2.08-.09-4.21.03-6.34.42-4.55.82-9.11,2.84-13.22,6.56-5.03,4.55-9.37,11.64-12.18,22.2,2.72,1.13,7.81,2.94,13.4,4.06,10.51,2.09,26.9,2.02,26.94-12.07.02-5.57-4.07-12.39-10.88-12.7-5.77-.26-12.76,2.1-16.12,5.78.18-.22,5.83-6.98,15.83-7.23.24,0,.48,0,.73,0,.61,0,1.21.04,1.8.12,3.18.39,6.07,1.71,8.36,3.64,2.43,2.03,4.01,4.58,4.94,7.39,1.43-.31,3.34-.87,5.41-1.94,2-1.04,3.52-2.22,4.58-3.18Z"/>
        <g>
          <path class="cls-2" d="M149.07,231.79c.96,1.62,2.1,3.15,3.42,4.55.59.62,1.2,1.22,1.86,1.78,3.87,3.35,10.59,6.36,17.98,6.68,2.08.09,4.21-.03,6.34-.42,4.55-.82,9.11-2.84,13.22-6.56,5.03-4.55,9.37-11.64,12.18-22.2-2.72-1.13-7.81-2.94-13.4-4.06-10.52-2.09-26.9-2.02-26.94,12.07-.02,5.57,4.07,12.39,10.88,12.7,5.77.26,12.76-2.1,16.12-5.78-.18.22-5.83,6.98-15.83,7.23-.24,0-.48,0-.73,0-.61,0-1.21-.04-1.8-.12-3.18-.39-6.07-1.71-8.36-3.64-2.43-2.03-4.01-4.58-4.94-7.39-2.78,2.61-6.25,4.39-9.99,5.12Z"/>
          <path class="cls-2" d="M159.05,226.73c-.96-1.62-2.1-3.15-3.42-4.55-.59-.62-1.2-1.22-1.86-1.78-3.87-3.35-10.59-6.36-17.98-6.68-2.08-.09-4.21.03-6.34.42-4.55.82-9.11,2.84-13.22,6.56-5.03,4.55-9.37,11.64-12.18,22.2,2.72,1.13,7.81,2.94,13.4,4.06,10.51,2.09,26.9,2.02,26.94-12.07.02-5.57-4.07-12.39-10.88-12.7-5.77-.26-12.76,2.1-16.12,5.78.18-.22,5.83-6.98,15.83-7.23.24,0,.48,0,.73,0,.61,0,1.21.04,1.8.12,3.18.39,6.07,1.71,8.36,3.64,2.43,2.03,4.01,4.58,4.94,7.39,1.43-.31,3.34-.87,5.41-1.94,2-1.04,3.52-2.22,4.58-3.18Z"/>
        </g>
        <g>
          <path class="cls-2" d="M43.07,175.29c.96,1.62,2.1,3.15,3.42,4.55.59.62,1.2,1.22,1.86,1.78,3.87,3.35,10.59,6.36,17.98,6.68,2.08.09,4.21-.03,6.34-.42,4.55-.82,9.11-2.84,13.22-6.56,5.03-4.55,9.37-11.64,12.18-22.2-2.72-1.13-7.81-2.94-13.4-4.06-10.52-2.09-26.9-2.02-26.94,12.07-.02,5.57,4.07,12.39,10.88,12.7,5.77.26,12.76-2.1,16.12-5.78-.18.22-5.83,6.98-15.83,7.23-.24,0-.48,0-.73,0-.61,0-1.21-.04-1.8-.12-3.18-.39-6.07-1.71-8.36-3.64-2.43-2.03-4.01-4.58-4.94-7.39-2.78,2.61-6.25,4.39-9.99,5.12Z"/>
          <path class="cls-2" d="M53.05,170.23c-.96-1.62-2.1-3.15-3.42-4.55-.59-.62-1.2-1.22-1.86-1.78-3.87-3.35-10.59-6.36-17.98-6.68-2.08-.09-4.21.03-6.34.42-4.55.82-9.11,2.84-13.22,6.56-5.03,4.55-9.37,11.64-12.18,22.2,2.72,1.13,7.81,2.94,13.4,4.06,10.51,2.09,26.9,2.02,26.94-12.07.02-5.57-4.07-12.39-10.88-12.7-5.77-.26-12.76,2.1-16.12,5.78.18-.22,5.83-6.98,15.83-7.23.24,0,.48,0,.73,0,.61,0,1.21.04,1.8.12,3.18.39,6.07,1.71,8.36,3.64,2.43,2.03,4.01,4.58,4.94,7.39,1.43-.31,3.34-.87,5.41-1.94,2-1.04,3.52-2.22,4.58-3.18Z"/>
        </g>
        <path class="cls-2" d="M265.05,57.23c-.96-1.62-2.1-3.15-3.42-4.55-.59-.62-1.2-1.22-1.86-1.78-3.87-3.35-10.59-6.36-17.98-6.68-2.08-.09-4.21.03-6.34.42-4.55.82-9.11,2.84-13.22,6.56-5.03,4.55-9.37,11.64-12.18,22.2,2.72,1.13,7.81,2.94,13.4,4.06,10.51,2.09,26.9,2.02,26.94-12.07.02-5.57-4.07-12.39-10.88-12.7-5.77-.26-12.76,2.1-16.12,5.78.18-.22,5.83-6.98,15.83-7.23.24,0,.48,0,.73,0,.61,0,1.21.04,1.8.12,3.18.39,6.07,1.71,8.36,3.64,2.43,2.03,4.01,4.58,4.94,7.39,1.43-.31,3.34-.87,5.41-1.94,2-1.04,3.52-2.22,4.58-3.18Z"/>
        <g>
          <path class="cls-2" d="M149.07,118.79c.96,1.62,2.1,3.15,3.42,4.55.59.62,1.2,1.22,1.86,1.78,3.87,3.35,10.59,6.36,17.98,6.68,2.08.09,4.21-.03,6.34-.42,4.55-.82,9.11-2.84,13.22-6.56,5.03-4.55,9.37-11.64,12.18-22.2-2.72-1.13-7.81-2.94-13.4-4.06-10.52-2.09-26.9-2.02-26.94,12.07-.02,5.57,4.07,12.39,10.88,12.7,5.77.26,12.76-2.1,16.12-5.78-.18.22-5.83,6.98-15.83,7.23-.24,0-.48,0-.73,0-.61,0-1.21-.04-1.8-.12-3.18-.39-6.07-1.71-8.36-3.64-2.43-2.03-4.01-4.58-4.94-7.39-2.78,2.61-6.25,4.39-9.99,5.12Z"/>
          <path class="cls-2" d="M159.05,113.73c-.96-1.62-2.1-3.15-3.42-4.55-.59-.62-1.2-1.22-1.86-1.78-3.87-3.35-10.59-6.36-17.98-6.68-2.08-.09-4.21.03-6.34.42-4.55.82-9.11,2.84-13.22,6.56-5.03,4.55-9.37,11.64-12.18,22.2,2.72,1.13,7.81,2.94,13.4,4.06,10.51,2.09,26.9,2.02,26.94-12.07.02-5.57-4.07-12.39-10.88-12.7-5.77-.26-12.76,2.1-16.12,5.78.18-.22,5.83-6.98,15.83-7.23.24,0,.48,0,.73,0,.61,0,1.21.04,1.8.12,3.18.39,6.07,1.71,8.36,3.64,2.43,2.03,4.01,4.58,4.94,7.39,1.43-.31,3.34-.87,5.41-1.94,2-1.04,3.52-2.22,4.58-3.18Z"/>
        </g>
        <g>
          <path class="cls-2" d="M43.07,62.29c.96,1.62,2.1,3.15,3.42,4.55.59.62,1.2,1.22,1.86,1.78,3.87,3.35,10.59,6.36,17.98,6.68,2.08.09,4.21-.03,6.34-.42,4.55-.82,9.11-2.84,13.22-6.56,5.03-4.55,9.37-11.64,12.18-22.2-2.72-1.13-7.81-2.94-13.4-4.06-10.52-2.09-26.9-2.02-26.94,12.07-.02,5.57,4.07,12.39,10.88,12.7,5.77.26,12.76-2.1,16.12-5.78-.18.22-5.83,6.98-15.83,7.23-.24,0-.48,0-.73,0-.61,0-1.21-.04-1.8-.12-3.18-.39-6.07-1.71-8.36-3.64-2.43-2.03-4.01-4.58-4.94-7.39-2.78,2.61-6.25,4.39-9.99,5.12Z"/>
          <path class="cls-2" d="M53.05,57.23c-.96-1.62-2.1-3.15-3.42-4.55-.59-.62-1.2-1.22-1.86-1.78-3.87-3.35-10.59-6.36-17.98-6.68-2.08-.09-4.21.03-6.34.42-4.55.82-9.11,2.84-13.22,6.56-5.03,4.55-9.37,11.64-12.18,22.2,2.72,1.13,7.81,2.94,13.4,4.06,10.51,2.09,26.9,2.02,26.94-12.07.02-5.57-4.07-12.39-10.88-12.7-5.77-.26-12.76,2.1-16.12,5.78.18-.22,5.83-6.98,15.83-7.23.24,0,.48,0,.73,0,.61,0,1.21.04,1.8.12,3.18.39,6.07,1.71,8.36,3.64,2.43,2.03,4.01,4.58,4.94,7.39,1.43-.31,3.34-.87,5.41-1.94,2-1.04,3.52-2.22,4.58-3.18Z"/>
        </g>
        <g>
          <path class="cls-2" d="M149.07,5.79c.96,1.62,2.1,3.15,3.42,4.55.59.62,1.2,1.22,1.86,1.78,3.87,3.35,10.59,6.36,17.98,6.68,2.08.09,4.21-.03,6.34-.42,4.55-.82,9.11-2.84,13.22-6.56,5.03-4.55,9.37-11.64,12.18-22.2-2.72-1.13-7.81-2.94-13.4-4.06-10.52-2.09-26.9-2.02-26.94,12.07-.02,5.57,4.07,12.39,10.88,12.7,5.77.26,12.76-2.1,16.12-5.78-.18.22-5.83,6.98-15.83,7.23-.24,0-.48,0-.73,0-.61,0-1.21-.04-1.8-.12-3.18-.39-6.07-1.71-8.36-3.64-2.43-2.03-4.01-4.58-4.94-7.39-2.78,2.61-6.25,4.39-9.99,5.12Z"/>
          <path class="cls-2" d="M159.05.73c-.96-1.62-2.1-3.15-3.42-4.55-.59-.62-1.2-1.22-1.86-1.78-3.87-3.35-10.59-6.36-17.98-6.68-2.08-.09-4.21.03-6.34.42-4.55.82-9.11,2.84-13.22,6.56-5.03,4.55-9.37,11.64-12.18,22.2,2.72,1.13,7.81,2.94,13.4,4.06,10.51,2.09,26.9,2.02,26.94-12.07.02-5.57-4.07-12.39-10.88-12.7-5.77-.26-12.76,2.1-16.12,5.78.18-.22,5.83-6.98,15.83-7.23.24,0,.48,0,.73,0,.61,0,1.21.04,1.8.12,3.18.39,6.07,1.71,8.36,3.64,2.43,2.03,4.01,4.58,4.94,7.39,1.43-.31,3.34-.87,5.41-1.94,2-1.04,3.52-2.22,4.58-3.18Z"/>
        </g>
      </g>
    </pattern>
  </defs>
  <rect class="cls-3" y="0" width="1200" height="1200"/>
</svg>