<?xml version="1.0" encoding="UTF-8"?>
<svg id="Layer_1" xmlns="http://www.w3.org/2000/svg" viewBox="0 0 1200 1200">
  <defs>
    <style>
      .cls-1, .cls-2 {
        fill: #fff;
      }

      .cls-3, .cls-4 {
        fill: #78c044;
      }

      .cls-2, .cls-4 {
        fill-rule: evenodd;
      }
    </style>
  </defs>
  <g>
    <path class="cls-4" d="M716.27,570.19c-9.47,0-18.88-.83-27.95-2.47-27.45-4.96-52.12-17.21-73.31-36.39-30.31-27.44-52.92-68.64-67.22-122.44l-.45-1.69,1.61-.67c8.28-3.44,38.05-15.22,73.71-22.31,12.49-2.48,31.78-5.44,52.72-5.44,27.77,0,50.13,5.07,66.48,15.07,20.25,12.39,30.56,32.04,30.64,58.39.1,33.18-24.56,69.84-61.43,71.52-1.62.07-3.29.11-4.96.11-15.92,0-32.73-3.36-47.72-9.04,13.36,6.79,30.48,12.38,51.04,12.89,1.02.03,2.03.04,3.06.04h.87c3.2-.02,6.43-.23,9.61-.62,16.48-2,31.94-8.73,44.72-19.44,12.24-10.26,21.12-23.56,26.39-39.52l.98-2.98,2.29,2.15c14.97,14.06,33.53,23.57,53.67,27.51l2.78.54-1.45,2.44c-5.41,9.12-11.79,17.62-18.96,25.25-3.3,3.5-6.77,6.83-10.32,9.91-19.2,16.65-55.46,35.13-99.64,37.04-2.39.1-4.81.16-7.19.16Z"/>
    <path class="cls-3" d="M707.36,911.59c-3.46,0-6.81-.75-9.94-2.24l-23.29-11.05c-47.19-20.29-104-68.12-138.1-116.27-43.31-61.18-62.92-135.54-53.82-204.01.84-6.36,4.33-12.15,9.58-15.87,3.94-2.79,8.58-4.27,13.4-4.27,1.6,0,3.2.17,4.77.5,67.6,14.18,131.21,57.4,174.51,118.57,6.5,9.2,12.56,18.79,18,28.51,3.34,5.99,6.57,13.49,9.85,22.92,2.17,5.63,4.06,11.32,5.63,17-1.14-19.36-7.25-52.73-32.87-85.47l-.42-.54v-.68c-.2-25.93-.38-54.86-.52-85.98v-2.38s2.34.4,2.34.4c10.85,1.86,22.07,2.8,33.35,2.8,2.86,0,5.77-.06,8.64-.18l2.08-.09v2.08c.52,108.85,1.33,184.91,2.42,226.07.16,6.19-2.09,12.08-6.36,16.57-4.26,4.49-10.02,7.06-16.22,7.22-.19,0-.4,0-.62,0-10.04,0-19.1-6.67-22.11-16.26-1.14-1.85-2.03-3.83-2.62-5.91-1.44-5.11-2.99-11.1-4.71-17.84-4.84-18.89-11.46-44.76-18.34-57.08-4.69-8.37-9.86-16.56-15.37-24.35-30.82-43.53-73.43-76.37-120.21-92.72-.13,49.56,16.67,100.66,47.48,144.2,29.29,41.37,79.31,83.68,118.92,100.61l.8.36,13.75,6.52,13.71-6.51.8-.36c39.65-16.94,89.66-59.25,118.96-100.62,30.85-43.59,47.66-94.76,47.48-144.39-41.79,14.22-74.8,40.84-106.74,85.98-4.34,6.13-11.43,9.79-18.95,9.79-4.81,0-9.44-1.47-13.38-4.26-5.06-3.58-8.42-8.91-9.46-15.02-1.04-6.11.35-12.26,3.93-17.32,44.76-63.23,94.43-97.66,161.04-111.63,1.56-.33,3.17-.5,4.76-.5,4.83,0,9.46,1.48,13.4,4.27,5.26,3.72,8.75,9.51,9.59,15.88,9.11,68.47-10.51,142.83-53.81,204.01-34.1,48.15-90.91,95.98-138.16,116.3l-23.22,11.02c-3.13,1.49-6.48,2.24-9.94,2.24Z"/>
  </g>
  <g>
    <path class="cls-2" d="M850.65,496.81c-5.26,8.87-11.5,17.25-18.7,24.91-3.2,3.4-6.59,6.66-10.17,9.77-21.17,18.36-57.98,34.8-98.41,36.55-11.37.49-23.02-.17-34.69-2.28-24.88-4.5-49.84-15.55-72.33-35.9-27.5-24.9-51.28-63.71-66.63-121.47,14.86-6.18,42.72-16.11,73.33-22.2,57.54-11.44,147.21-11.06,147.45,66.06.09,30.49-22.25,67.81-59.52,69.52-31.56,1.44-69.83-11.47-88.21-31.61.97,1.18,31.89,38.21,86.61,39.56,1.32.04,2.64.05,3.99.04,3.33-.02,6.61-.24,9.85-.64,17.38-2.12,33.22-9.38,45.76-19.89,13.29-11.13,21.94-25.09,27.01-40.43,15.22,14.3,34.19,24.01,54.66,28.01Z"/>
    <path class="cls-1" d="M877.06,780.88c-33.93,47.92-90.34,95.41-137.32,115.62l-23.29,11.05c-2.88,1.36-5.98,2.05-9.09,2.05s-6.21-.68-9.09-2.05l-23.29-11.05c-46.98-20.21-103.39-67.7-137.32-115.62-43.02-60.77-62.51-134.61-53.47-202.59.77-5.84,3.95-11.1,8.76-14.5,4.82-3.41,10.83-4.66,16.6-3.44,67.11,14.08,130.27,57,173.29,117.77,6.46,9.13,12.48,18.67,17.89,28.34,3.56,6.38,6.77,14.18,9.7,22.6,3.15,8.17,5.8,16.7,7.75,25.48.58,2.12,1.15,4.23,1.7,6.32.74-8.83,2.77-56.17-33.21-102.17-.21-27.99-.38-57.19-.51-85.97,10.97,1.88,22.29,2.82,33.68,2.82,2.89,0,5.82-.06,8.72-.19.41,87.18,1.12,177.56,2.41,226.11.31,11.7-8.93,21.43-20.63,21.74-.19,0-.38,0-.57,0-9.54,0-17.64-6.34-20.28-15.1-1.08-1.7-1.95-3.59-2.53-5.62-1.44-5.11-3.03-11.27-4.69-17.79-4.86-18.99-11.52-45.01-18.53-57.57-4.68-8.36-9.89-16.62-15.49-24.53-31.76-44.86-75.95-78.3-123.82-94.36-.78,50.49,16.08,103.28,47.82,148.14,29.48,41.64,79.84,84.24,119.77,101.29.26.12.5.23.76.35l14.57,6.92,14.57-6.92c.26-.12.5-.23.76-.35,39.93-17.05,90.29-59.66,119.77-101.29,31.78-44.9,48.64-97.78,47.83-148.31-43.74,14.23-77.68,41.43-110.35,87.59-6.77,9.55-19.99,11.8-29.55,5.05-9.55-6.76-11.81-19.99-5.05-29.55,44.45-62.79,93.74-96.97,159.82-110.83,5.76-1.21,11.79.04,16.59,3.44,4.82,3.41,8,8.66,8.77,14.5,9.04,67.98-10.45,141.82-53.47,202.59Z"/>
  </g>
  <path class="cls-3" d="M946.64,714.46c-5.15,416.23-401.42,433.63-631.44-10.95v192.01h-61.86v-328.61h65.72c68.94,160.44,211.98,429.12,425.26,399.49,71.64-9.98,110.35-74.56,128.14-148.27,7.43-8.55,14.32-17.27,20.49-25.98,25.75-36.36,43.57-77.19,52.53-118.88.89,13.64,1.28,27.37,1.16,41.21Z"/>
</svg>