<?xml version="1.0" encoding="UTF-8"?>
<svg id="Layer_1" xmlns="http://www.w3.org/2000/svg" viewBox="0 0 1200 1200">
  <defs>
    <style>
      .cls-1 {
        fill: #fff;
      }

      .cls-2, .cls-3 {
        fill: #311910;
      }

      .cls-3 {
        fill-rule: evenodd;
      }
    </style>
  </defs>
  <g>
    <path class="cls-3" d="M850.65,496.81c-5.26,8.87-11.5,17.25-18.7,24.91-3.2,3.4-6.59,6.66-10.17,9.77-21.17,18.36-57.98,34.8-98.41,36.55-11.37.49-23.02-.17-34.69-2.28-24.88-4.5-49.84-15.55-72.33-35.9-27.5-24.9-51.28-63.71-66.63-121.47,14.86-6.18,42.72-16.11,73.33-22.2,57.54-11.44,147.21-11.06,147.45,66.06.09,30.49-22.25,67.81-59.52,69.52-31.56,1.44-69.83-11.47-88.21-31.61.97,1.18,31.89,38.21,86.61,39.56,1.32.04,2.64.05,3.99.04,3.33-.02,6.61-.24,9.85-.64,17.38-2.12,33.22-9.38,45.76-19.89,13.29-11.13,21.94-25.09,27.01-40.43,15.22,14.3,34.19,24.01,54.66,28.01Z"/>
    <path class="cls-2" d="M877.06,780.88c-33.93,47.92-90.34,95.41-137.32,115.62l-23.29,11.05c-2.88,1.36-5.98,2.05-9.09,2.05s-6.21-.68-9.09-2.05l-23.29-11.05c-46.98-20.21-103.39-67.7-137.32-115.62-43.02-60.77-62.51-134.61-53.47-202.59.77-5.84,3.95-11.1,8.76-14.5,4.82-3.41,10.83-4.66,16.6-3.44,67.11,14.08,130.27,57,173.29,117.77,6.46,9.13,12.48,18.67,17.89,28.34,3.56,6.38,6.77,14.18,9.7,22.6,3.15,8.17,5.8,16.7,7.75,25.48.58,2.12,1.15,4.23,1.7,6.32.74-8.83,2.77-56.17-33.21-102.17-.21-27.99-.38-57.19-.51-85.97,10.97,1.88,22.29,2.82,33.68,2.82,2.89,0,5.82-.06,8.72-.19.41,87.18,1.12,177.56,2.41,226.11.31,11.7-8.93,21.43-20.63,21.74-.19,0-.38,0-.57,0-9.54,0-17.64-6.34-20.28-15.1-1.08-1.7-1.95-3.59-2.53-5.62-1.44-5.11-3.03-11.27-4.69-17.79-4.86-18.99-11.52-45.01-18.53-57.57-4.68-8.36-9.89-16.62-15.49-24.53-31.76-44.86-75.95-78.3-123.82-94.36-.78,50.49,16.08,103.28,47.82,148.14,29.48,41.64,79.84,84.24,119.77,101.29.26.12.5.23.76.35l14.57,6.92,14.57-6.92c.26-.12.5-.23.76-.35,39.93-17.05,90.29-59.66,119.77-101.29,31.78-44.9,48.64-97.78,47.83-148.31-43.74,14.23-77.68,41.43-110.35,87.59-6.77,9.55-19.99,11.8-29.55,5.05-9.55-6.76-11.81-19.99-5.05-29.55,44.45-62.79,93.74-96.97,159.82-110.83,5.76-1.21,11.79.04,16.59,3.44,4.82,3.41,8,8.66,8.77,14.5,9.04,67.98-10.45,141.82-53.47,202.59Z"/>
  </g>
  <path class="cls-2" d="M713.8,1035.79c-67.03,0-138.56-28.34-206.87-81.94-70.1-55.01-134.79-135.77-187.73-234.19v179.85h-69.86v-336.61h72.36l1.04,2.42c45.49,105.85,94.98,192.32,147.12,257.01,76.11,94.43,157.56,142.32,242.09,142.32,10.51,0,21.21-.75,31.83-2.22,76.76-10.69,110.23-84.89,124.8-145.25l.23-.95.64-.74c7.42-8.55,14.24-17.18,20.25-25.67,25.03-35.34,42.97-75.94,51.88-117.41l7.9.58c.9,13.83,1.29,27.79,1.17,41.5-1.24,99.99-25.38,182.77-69.81,239.43-20.98,26.75-46.14,47.36-74.78,61.26-28.19,13.68-59.22,20.61-92.24,20.61Z"/>
  <path class="cls-1" d="M946.64,714.46c-5.15,416.23-401.42,433.63-631.44-10.95v192.01h-61.86v-328.61h65.72c68.94,160.44,211.98,429.12,425.26,399.49,71.64-9.98,110.35-74.56,128.14-148.27,7.43-8.55,14.32-17.27,20.49-25.98,25.75-36.36,43.57-77.19,52.53-118.88.89,13.64,1.28,27.37,1.16,41.21Z"/>
</svg>