<?xml version="1.0" encoding="UTF-8"?>
<svg id="Layer_1" xmlns="http://www.w3.org/2000/svg" viewBox="0 0 1200 1200">
  <defs>
    <style>
      .cls-1 {
        fill: #fff;
      }

      .cls-2, .cls-3 {
        fill: #2f1913;
      }

      .cls-3 {
        fill-rule: evenodd;
      }
    </style>
  </defs>
  <g>
    <g>
      <path class="cls-3" d="M300.87,560.1c-2.09,3.52-4.56,6.84-7.42,9.88-1.27,1.35-2.61,2.64-4.03,3.87-8.4,7.28-23,13.8-39.04,14.5-4.51.2-9.13-.07-13.76-.91-9.87-1.78-19.77-6.17-28.69-14.24-10.91-9.88-20.34-25.27-26.43-48.18,5.89-2.45,16.95-6.39,29.09-8.8,22.82-4.54,58.39-4.39,58.49,26.2.04,12.09-8.82,26.9-23.61,27.58-12.52.57-27.7-4.55-34.99-12.54.39.47,12.65,15.16,34.36,15.69.52.02,1.05.02,1.58.02,1.32,0,2.62-.09,3.91-.25,6.89-.84,13.18-3.72,18.15-7.89,5.27-4.42,8.7-9.95,10.71-16.04,6.04,5.67,13.56,9.53,21.68,11.11Z"/>
      <path class="cls-2" d="M311.34,672.78c-13.46,19.01-35.83,37.85-54.47,45.86l-9.24,4.38c-1.14.54-2.37.81-3.6.81s-2.46-.27-3.6-.81l-9.24-4.38c-18.64-8.02-41.01-26.85-54.47-45.86-17.06-24.11-24.79-53.4-21.21-80.36.31-2.32,1.57-4.4,3.47-5.75,1.91-1.35,4.3-1.85,6.59-1.37,26.62,5.58,51.67,22.61,68.74,46.72,2.56,3.62,4.95,7.4,7.1,11.24,1.41,2.53,2.69,5.62,3.85,8.96,1.25,3.24,2.3,6.62,3.07,10.11.23.84.46,1.68.67,2.51.3-3.5,1.1-22.28-13.18-40.53-.08-11.1-.15-22.69-.2-34.1,4.35.74,8.84,1.12,13.36,1.12,1.15,0,2.31-.02,3.46-.07.16,34.58.45,70.43.96,89.69.12,4.64-3.54,8.5-8.18,8.62-.08,0-.15,0-.22,0-3.78,0-7-2.51-8.04-5.99-.43-.67-.77-1.42-1-2.23-.57-2.03-1.2-4.47-1.86-7.06-1.93-7.53-4.57-17.85-7.35-22.83-1.86-3.32-3.92-6.59-6.14-9.73-12.6-17.79-30.13-31.06-49.11-37.43-.31,20.03,6.38,40.97,18.97,58.76,11.69,16.52,31.67,33.41,47.51,40.18.1.05.2.09.3.14l5.78,2.74,5.78-2.74c.1-.05.2-.09.3-.14,15.84-6.76,35.82-23.66,47.51-40.18,12.61-17.81,19.29-38.78,18.97-58.83-17.35,5.64-30.81,16.43-43.77,34.74-2.68,3.79-7.93,4.68-11.72,2-3.79-2.68-4.69-7.93-2-11.72,17.63-24.91,37.18-38.46,63.4-43.96,2.29-.48,4.68.01,6.58,1.37,1.91,1.35,3.17,3.44,3.48,5.75,3.59,26.96-4.14,56.26-21.21,80.36Z"/>
    </g>
    <g>
      <path class="cls-1" d="M338.94,646.44c-2.04,165.11-159.23,172.01-250.47-4.34v76.16h-24.54v-130.35h26.07c27.35,63.64,84.09,170.22,168.69,158.46,28.42-3.96,43.77-29.57,50.83-58.82,2.95-3.39,5.68-6.85,8.13-10.31,10.21-14.42,17.28-30.62,20.84-47.16.35,5.41.51,10.86.46,16.35Z"/>
      <path class="cls-2" d="M338.94,646.44c-2.04,165.11-159.23,172.01-250.47-4.34v76.16h-24.54v-130.35h26.07c27.35,63.64,84.09,170.22,168.69,158.46,28.42-3.96,43.77-29.57,50.83-58.82,2.95-3.39,5.68-6.85,8.13-10.31,10.21-14.42,17.28-30.62,20.84-47.16.35,5.41.51,10.86.46,16.35Z"/>
    </g>
  </g>
  <g>
    <g>
      <path class="cls-2" d="M464.11,659.8c-12.64,5.59-18.96,13.53-18.96,23.82v12.15l.97.97h2.91l7.29-.97c12.64-4.78,18.96-13.53,18.96-26.25v-10.69l-.49-.48-10.69,1.46Z"/>
      <path class="cls-2" d="M486.95,658.34l-.97.97v10.69c0,3.81.32,6.4.97,7.78,4.62,12.64,13.2,18.96,25.76,18.96h2.43l.97-.97v-11.18l-.97-6.8c-5.35-12.96-14.75-19.44-28.19-19.44Z"/>
      <path class="cls-2" d="M676.81,512.76c6.48-4.13,9.72-13.2,9.72-27.22v-4.37l-.49-.49c-4.78,0-9.16.81-13.12,2.43-11.34,5.02-17.01,13.12-17.01,24.3v10.69l.97.97c8.42,0,15.07-2.11,19.93-6.32Z"/>
      <path class="cls-2" d="M643.75,519.08h.97l.97-.97v-3.4l-.97-13.61c-4.86-13.61-14.26-20.41-28.19-20.41-.97,0-1.46.32-1.46.97v14.1c3.48,15.55,13.04,23.33,28.68,23.33Z"/>
      <path class="cls-2" d="M825.06,512.76c6.48-4.13,9.72-13.2,9.72-27.22v-4.37l-.49-.49c-4.78,0-9.16.81-13.12,2.43-11.34,5.02-17.01,13.12-17.01,24.3v10.69l.97.97c8.42,0,15.07-2.11,19.93-6.32Z"/>
      <path class="cls-2" d="M792,519.08h.97l.97-.97v-3.4l-.97-13.61c-4.86-13.61-14.26-20.41-28.19-20.41-.97,0-1.46.32-1.46.97v14.1c3.48,15.55,13.04,23.33,28.68,23.33Z"/>
      <path class="cls-2" d="M1000.15,645.02c-11.34,5.02-17.01,13.12-17.01,24.3v10.69l.97.97c8.42,0,15.07-2.11,19.93-6.32,6.48-4.13,9.72-13.21,9.72-27.22v-4.37l-.49-.49c-4.78,0-9.16.81-13.12,2.43Z"/>
      <path class="cls-2" d="M1092.15,526.13l7.29-.97c12.64-4.78,18.96-13.53,18.96-26.25v-10.69l-.49-.49-10.69,1.46c-12.64,5.59-18.96,13.53-18.96,23.82v12.15l.97.97h2.92Z"/>
      <path class="cls-2" d="M1119.85,537.71h-1.95l-5.84.49c-13.31,4.54-19.97,12.5-19.97,23.86v8.76l-.97,11.2c-5.44,14.28-15.34,21.43-29.7,21.43h-12.66l-.97.97v-.52l-.97-.97h-28.43c4.86-8.18,7.29-19.85,7.29-35v-29.65l-.97-.97h-2.43l-4.86.48c-13.93,4.13-20.9,12.23-20.9,24.3v10.69c0,3.4-.49,6.8-1.46,10.21-6.08,13.28-14.83,19.93-26.25,19.93h-18.71l-.97.97h0s-1.69-1-1.69-1h-95.53l-1.69,1.01h0s-.97-.98-.97-.98h-28.43c4.86-8.18,7.29-19.85,7.29-35v-29.65l-.97-.97h-2.43l-4.86.48c-13.93,4.13-20.9,12.23-20.9,24.3v10.69c0,3.4-.49,6.8-1.46,10.21-6.08,13.28-14.83,19.93-26.25,19.93h-18.71l-.97.97v.07l-.85-1.01h-47.89l-.85,1.01v-.07l-.97-.97h-28.43c4.86-8.18,7.29-19.85,7.29-35v-29.65l-.97-.97h-2.43l-4.86.48c-13.93,4.13-20.9,12.23-20.9,24.3v10.69c0,3.4-.49,6.8-1.46,10.21-6.07,13.28-14.83,19.93-26.25,19.93h-16.79c-.06-21.8-6.54-38.22-19.43-49.26-10.69-10.69-24.47-16.04-41.32-16.04h-12.64v-18.47l-12.28.05c-10.14.04-18.35,8.28-18.35,18.42h-13.61l-.97.97v28.68l.97.97h13.61v42.29h-28.68c-12.15,0-21.39-5.67-27.71-17.01-1.62-3.56-2.43-6.97-2.43-10.21v-29.17c0-16.93-6.64-26.97-19.93-30.13l-8.26-.97-.97.97v61.73c0,15.07,7.29,29.16,21.87,42.28,11.1,8.43,22.12,12.64,33.05,12.64h35.97c12.64,0,21.55-6.64,26.73-19.93l.97-11.67v-40.83h16.04c11.26,0,20.01,6.48,26.25,19.44,1.3,2.67,1.94,7.21,1.94,13.61v8.26c0,12.07,6.97,20.01,20.9,23.82l5.35.49h1.94l.31-.31h11.61c17.74,0,31.67-4.7,41.8-14.1v13.12l.97.97h41.07l.97-.97v-.03l.85,1h47.89l.85-1v.03l.97.97h12.88c17.74,0,31.67-4.7,41.8-14.1v13.12l.97.97h41.07l.97-.97v-.03l1.69,1h95.53l1.69-1v.03l.97.97h12.88c17.74,0,31.67-4.7,41.8-14.1v13.12l.97.97h41.07l.97-.97v.08l.97.97h14.61c14.2,0,26.54-4.7,37-14.12,13.63-12.9,20.45-27.18,20.45-42.85v-37.98l-.98-.97Z"/>
    </g>
    <g>
      <g>
        <path class="cls-1" d="M599.14,643.09c-.76,0-2.47.4-5.13,1.22-2.67.81-5.19,1.87-7.58,3.15-2.39,1.29-3.59,2.6-3.59,3.94,0,.51.26,1.06.79,1.66.52.6,1.06,2.33,1.6,5.18.25,21.84.38,47.67.38,77.51-2.75-7.61-7.15-19.15-13.2-34.65-11.01-28.21-16.73-43.52-17.17-45.95,0-.9-.54-1.47-1.63-1.68-3.04-.83-6.39-1.25-10.05-1.25-2.42,0-4.56.2-6.41.6-2.29.43-3.42,1.08-3.42,1.95,0,.33.17.74.51,1.25.34.51.76,1.08,1.25,1.71.48.64.98,1.29,1.49,1.98l.06,6.36c.11,5.18.16,11.51.16,19.01,0,14.99-.59,28.84-1.79,41.55-1.08,11.41-3.04,21.15-5.86,29.22-.18.51-.56.95-1.14,1.31-.76.61-1.14,1.32-1.14,2.12,0,.61,1.03,1.41,3.09,2.39,2.06.98,4.33,1.86,6.82,2.63,2.47.78,4.32,1.17,5.51,1.17,2.31,0,3.95-2.73,4.89-8.2.43-2.36.71-4.89.82-7.61.22-5.36.45-17.36.7-36.01l.33-18.96c5.62,12.06,11.1,23.41,16.46,34.06,4.09,8.08,6.81,13.67,8.15,16.78.43,1.12,1.72,2,3.85,2.61,2.54.65,5.16,1.43,7.88,2.34,4.74,1.63,7.82,2.44,9.23,2.44.59,0,1.01-.2,1.28-.57.27-.38.4-.7.4-.95v-2.99c0-22.92,1.2-46.73,3.59-71.42,1.05-10.1,1.58-18.21,1.58-24.33l.05-2.78c0-1.52-.07-2.93-.22-4.23-.22-1.71-1.06-2.55-2.55-2.55Z"/>
        <path class="cls-1" d="M660.84,755.14c-.07,0-.11-.04-.11-.11-3.51-3.51-5.5-7.77-5.94-12.77-.46-5-.68-8.87-.68-11.62,0-5.07.4-10.43,1.19-16.07,1.23-8.76,2.88-16.95,4.95-24.56.11-.29.16-.54.16-.76,0-.14-.03-.3-.08-.48-.06-.18-.25-.4-.57-.65-.33-.25-1.3-.72-2.93-1.39-1.63-.67-3.3-1.33-5-1.98-1.7-.65-2.75-.98-3.15-.98-.61,0-1.18,1.28-1.68,3.85l-.82,4.29c-.54-1.84-1.29-3.64-2.25-5.37-.96-1.74-2.18-3.17-3.64-4.3-1.47-1.12-3.25-1.68-5.35-1.68-3.8,0-7.27,1.44-10.43,4.32-3.15,2.88-5.86,6.65-8.15,11.32-2.28,4.67-4.09,9.82-5.43,15.45-1.34,5.63-2.09,10.14-2.25,13.55-.17,3.41-.25,5.71-.25,6.9,0,10.35,2.01,18.08,6.03,23.19,2.28,2.94,5.32,4.4,9.12,4.4,2.61,0,4.8-1.03,6.57-3.07,1.78-2.05,3.32-4.68,4.62-7.9,1.19-2.96,2.89-7.78,5.1-14.45,0,6.88,1.29,12.84,3.88,17.87,2.59,5.03,5.58,7.55,8.99,7.55,1.16,0,2.43-.21,3.8-.63,1.37-.41,2.57-.9,3.59-1.44,1.01-.54,1.52-.99,1.52-1.36,0-.4-.27-.77-.82-1.14ZM636.11,733.6c-1.72,5.49-3.59,10.1-5.63,13.85-2.02,3.75-4.18,5.62-6.46,5.62-1.71,0-2.64-1.37-2.8-4.1-.17-2.73-.25-4.74-.25-6,0-9.09,1.48-19.48,4.45-31.17,1.59-6.31,3.46-11.62,5.62-15.94s4.39-6.49,6.71-6.49c1.48,0,2.26.56,2.34,1.68.07,1.12.11,1.9.11,2.34,0,3.15-1,7.28-2.99,12.39-1.01,2.75-1.87,4.61-2.55,5.57-.69.95-1.03,1.73-1.03,2.31,0,1.16,2.41,2.28,7.22,3.37-1.45,5.57-3.03,11.11-4.75,16.59Z"/>
        <path class="cls-1" d="M695.83,680.56c-1.96,0-3.68.7-5.16,2.1-1.48,1.39-2.77,3.21-3.85,5.46-1.08,2.24-2,4.71-2.72,7.38,0-14.23-.17-25.12-.51-32.67-.35-7.55-.85-12.73-1.5-15.56-.65-2.83-1.46-4.24-2.44-4.24-1.52,0-3.33.61-5.43,1.82-2.1,1.21-3.99,2.47-5.68,3.77-1.68,1.3-2.74,2.21-3.17,2.71-.18.22-.27.51-.27.87,0,.77.29,1.61.87,2.55,2.36,3.55,4.27,11.42,5.76,23.63.83,6.66,1.24,14.88,1.24,24.66,0,20.31-1.61,36.48-4.83,48.5-.07.22-.11.46-.11.71,0,2.31,1.66,4.25,5,5.81,2.24,1.09,5.72,1.63,10.43,1.63.76,0,1.21-.16,1.36-.46.14-.31.22-.67.22-1.06l-.11-1.03c-.22-1.31-.38-3.06-.49-5.27,3.59,5.21,9,7.82,16.24,7.82,3.62,0,6.87-1.44,9.75-4.32,2.88-2.89,5.29-6.67,7.22-11.38,1.93-4.71,3.21-9.3,3.83-13.77.61-4.48.93-8.39.93-11.76,0-8.47-1.36-15.87-4.08-22.21-4.56-10.46-12.05-15.7-22.48-15.7ZM704.41,747.16c-1.09,4.48-2.65,6.73-4.67,6.73-2.54,0-4.43-.95-5.68-2.85-1.25-1.9-2.03-3.96-2.34-6.17-.31-2.21-.46-4.14-.46-5.81,0-3.07.27-5.37.81-6.9.29-.87.44-1.55.44-2.06v-.11c0-.43-.19-.74-.55-.93-.4-.25-1.5-.51-3.31-.76-1.52-.22-2.49-.33-2.93-.33v-2.72c0-14.92,1.61-25.71,4.83-32.37,1.74-3.48,3.88-5.22,6.41-5.22,2.24,0,4.1,2.26,5.56,6.77,1.47,4.5,2.48,9.61,3.04,15.32.56,5.71.85,11.01.85,15.94,0,8.91-.67,16.06-2.01,21.46Z"/>
        <path class="cls-1" d="M768.17,676.81c.58-1.08,2.54-2.19,5.86-3.31,1.49-.43,2.78-.93,3.88-1.47,1.11-.54,1.66-1.25,1.66-2.12,0-.29-.17-.59-.51-.93-.35-.33-.87-.48-1.61-.48h-1.3c-6.73,0-14.9-.38-24.49-1.14,1.52-8.04,2.57-13.15,3.15-15.31.18-.83.28-1.41.28-1.74,0-.44-.25-.91-.76-1.42-1.53-1.48-3.66-2.73-6.41-3.75-3.59-1.37-6.48-2.06-8.69-2.06-1.41,0-2.19.33-2.34.98,0,.98.09,2.39.25,4.24.17,1.84.28,3.51.35,5,.07,1.48.11,2.59.11,3.31,0,1.41-.07,2.77-.22,4.07l-.49,5.32c-5.25-.65-8.2-1.23-8.85-1.74-.61-.76-1.36-1.14-2.23-1.14-1.19,0-2.46,1.81-3.8,5.43-.76,2.14-1.17,5.37-1.24,9.67,0,.55.42,1.13,1.27,1.74.85.61,1.87.93,3.07.93,3.08,0,6.67-.19,10.76-.55-1.02,18.76-1.53,38.02-1.53,57.8,0,10.86.14,16.86.43,17.98.51,1.95,1.42,4.14,2.72,6.54,1.3,2.41,2.69,4.53,4.16,6.36,1.46,1.83,2.63,2.74,3.5,2.74.14,0,.29-.1.43-.3.14-.2.25-.4.33-.63.07-.22.11-.4.11-.54-.33-9.09-.48-17.66-.48-25.74,0-9.81.25-18.88.76-27.21.87-15.29,2.06-28.03,3.59-38.24,4.71-.43,9.28-.65,13.74-.65,2.47,0,3.98-.55,4.56-1.63Z"/>
        <path class="cls-1" d="M812.92,755.14c-.07,0-.11-.04-.11-.11-3.51-3.51-5.5-7.77-5.94-12.77-.46-5-.68-8.87-.68-11.62,0-5.07.4-10.43,1.19-16.07,1.23-8.76,2.88-16.95,4.95-24.56.11-.29.16-.54.16-.76,0-.14-.02-.3-.08-.48-.05-.18-.25-.4-.57-.65-.33-.25-1.3-.72-2.93-1.39-1.63-.67-3.3-1.33-5-1.98-1.71-.65-2.75-.98-3.15-.98-.61,0-1.18,1.28-1.68,3.85l-.82,4.29c-.54-1.84-1.29-3.64-2.25-5.37-.96-1.74-2.18-3.17-3.64-4.3-1.46-1.12-3.25-1.68-5.35-1.68-3.8,0-7.27,1.44-10.43,4.32-3.15,2.88-5.86,6.65-8.14,11.32-2.29,4.67-4.09,9.82-5.44,15.45-1.34,5.63-2.09,10.14-2.25,13.55-.17,3.41-.25,5.71-.25,6.9,0,10.35,2.01,18.08,6.03,23.19,2.28,2.94,5.32,4.4,9.13,4.4,2.6,0,4.79-1.03,6.57-3.07,1.78-2.05,3.32-4.68,4.62-7.9,1.19-2.96,2.9-7.78,5.11-14.45,0,6.88,1.29,12.84,3.88,17.87,2.59,5.03,5.59,7.55,8.99,7.55,1.16,0,2.43-.21,3.8-.63,1.37-.41,2.57-.9,3.59-1.44,1.01-.54,1.52-.99,1.52-1.36,0-.4-.27-.77-.82-1.14ZM788.19,733.6c-1.72,5.49-3.59,10.1-5.62,13.85-2.03,3.75-4.19,5.62-6.46,5.62-1.71,0-2.64-1.37-2.8-4.1-.17-2.73-.25-4.74-.25-6,0-9.09,1.48-19.48,4.45-31.17,1.59-6.31,3.46-11.62,5.62-15.94,2.16-4.32,4.4-6.49,6.71-6.49,1.48,0,2.26.56,2.34,1.68.07,1.12.11,1.9.11,2.34,0,3.15-1,7.28-2.99,12.39-1.01,2.75-1.87,4.61-2.55,5.57-.69.95-1.03,1.73-1.03,2.31,0,1.16,2.41,2.28,7.22,3.37-1.45,5.57-3.03,11.11-4.75,16.59Z"/>
        <path class="cls-1" d="M858.93,676.81c.58-1.08,2.53-2.19,5.86-3.31,1.48-.43,2.78-.93,3.88-1.47,1.11-.54,1.66-1.25,1.66-2.12,0-.29-.17-.59-.51-.93-.35-.33-.88-.48-1.61-.48h-1.3c-6.74,0-14.9-.38-24.5-1.14,1.53-8.04,2.57-13.15,3.15-15.31.18-.83.27-1.41.27-1.74,0-.44-.25-.91-.76-1.42-1.52-1.48-3.66-2.73-6.41-3.75-3.59-1.37-6.49-2.06-8.69-2.06-1.41,0-2.19.33-2.34.98,0,.98.08,2.39.25,4.24.16,1.84.28,3.51.35,5,.07,1.48.11,2.59.11,3.31,0,1.41-.07,2.77-.22,4.07l-.49,5.32c-5.25-.65-8.2-1.23-8.85-1.74-.61-.76-1.36-1.14-2.23-1.14-1.2,0-2.47,1.81-3.8,5.43-.76,2.14-1.18,5.37-1.25,9.67,0,.55.43,1.13,1.28,1.74.85.61,1.87.93,3.07.93,3.08,0,6.66-.19,10.75-.55-1.01,18.76-1.52,38.02-1.52,57.8,0,10.86.14,16.86.43,17.98.51,1.95,1.41,4.14,2.72,6.54,1.3,2.41,2.69,4.53,4.15,6.36,1.47,1.83,2.64,2.74,3.51,2.74.14,0,.29-.1.43-.3.14-.2.25-.4.33-.63.07-.22.11-.4.11-.54-.33-9.09-.49-17.66-.49-25.74,0-9.81.25-18.88.77-27.21.87-15.29,2.06-28.03,3.58-38.24,4.71-.43,9.29-.65,13.75-.65,2.46,0,3.98-.55,4.56-1.63Z"/>
        <path class="cls-1" d="M934.64,710.03c.14.04.29.09.38.17-.09-.08-.24-.13-.38-.17Z"/>
        <path class="cls-1" d="M1000.31,713.06c-2.01-4.17-4.37-8.15-7.19-11.84-5.05-6.59-11.03-12.08-18.69-15.5-6.5-2.9-13.26-3.88-20.32-2.5-10.26,1.99-18.35,7.51-25.07,15.29-2.25,2.6-4.27,5.37-6.07,8.29.3-.24.59-.33.86-.33-.27,0-.56.09-.86.33-3.05,4.82-5.76,9.81-8.1,14.95-1.01,2.18-1.94,4.4-2.81,6.65-.12.3-.23.6-.35.9-1.79,4.48-4.45,8.61-7.96,12.38l.43-8.69c.36-7.2.54-14.12.54-20.75,0-8.94-.83-14.83-2.5-17.66-2.75-4.01-4.96-6.02-6.62-6.02-1.3,0-2.74,1.52-4.32,4.56-1.58,3.04-3.22,6.9-4.92,11.57-1.7,4.67-3.41,9.57-5.13,14.71-1.72,5.14-3.39,9.94-5.03,14.4-1.63,4.45-3.17,8.1-4.64,10.94-1.47,2.84-2.8,4.27-3.99,4.27-.9,0-1.65-1.5-2.23-4.48-.58-2.99-.99-6.59-1.22-10.83-.24-4.24-.35-8.22-.35-11.95,0-7.82.6-15.1,1.79-21.83,1.23-7.03,2.43-11.1,3.59-12.23.76-.65,1.14-1.17,1.14-1.57,0-.43-.69-1.11-2.07-2.01-3.66-2.39-7.02-3.59-10.1-3.59l-.6-.06c-.33,0-.72.08-1.19.22-.47.15-1.02.66-1.66,1.53-.64.87-1.19,2.31-1.68,4.32-.48,2.01-.9,4.81-1.22,8.39-.33,3.59-.48,8.24-.48,13.96,0,9.92,1.06,18.71,3.17,26.37,2.12,7.66,4.79,13.65,8.04,17.98,3.24,4.32,6.51,6.49,9.81,6.49,1.84,0,3.55-1.11,5.13-3.34,1.58-2.23,3.06-5.03,4.45-8.4,1.4-3.37,2.71-6.83,3.94-10.37,1.48-4.35,2.93-8.1,4.35-11.24,1.41-3.15,2.82-4.73,4.24-4.73s2.23,3.95,2.23,11.84c0,6.08-.37,11.19-1.09,15.31-3.77,3.51-7.35,6.77-10.75,9.78-12.96,11.11-19.59,18.76-19.88,22.92l-.22,3.47c0,5.18,3.96,11.23,11.89,18.14,1.99,1.74,3.66,2.61,5,2.61,3.22,0,6.28-2.26,9.18-6.79,2.9-4.53,5.38-10.37,7.44-17.52,2.07-7.15,3.51-14.79,4.35-22.94.06-.62,1.47-1.15,1.94-1.43,9.42-9.27,14.52-17.95,18.67-30.57.4-1.27.82-2.53,1.29-3.77.08-.21.16-.42.24-.63,1.63-4.27,3.58-8.35,5.78-12.37.02-.05.04-.09.07-.14-.02.05-.04.1-.07.15.11-.17.22-.33.32-.49,1.42-2.17,2.83-4.32,4.65-6.2,6.18-6.38,13.57-9.83,22.62-9.23,6.77.45,12.97,2.57,18.81,5.97,2.42,1.41,4.66,3.05,6.75,4.88.48.42,1.01.8,1.36,1.5-2.13-.82-4.13-1.66-6.18-2.36-9.67-3.33-19.49-4.97-29.64-2.39-5.4,1.37-9.9,4.24-13.7,8.26-.19.2-.34.39-.41.59-.14.33-.09.68.27,1.15,6.21,8.3,14.63,12.38,24.83,13.13,6.17.46,12.1-.96,18.04-2.24,6.5-1.4,13.02-2.57,19.7-2.15,1.74.11,3.49.24,5.28.36-.43-2.72-1.73-5.06-2.86-7.42ZM885.38,783.6c-2.14,4.85-4.09,8.09-5.84,9.72-1.76,1.63-3.21,2.44-4.37,2.44-1.09,0-2.15-.48-3.21-1.47-1.16-1.23-1.74-2.57-1.74-4.01,0-3.22,2.9-7.5,8.69-12.82,3.69-3.33,7.82-6.75,12.39-10.27-1.81,6.08-3.79,11.55-5.92,16.41ZM925.84,707.31c-.25-.07-.48-.21-.73-.36.25.14.48.28.73.35.48.14.95.31,1.43.49-.48-.17-.95-.35-1.43-.48Z"/>
      </g>
      <g>
        <path class="cls-2" d="M599.14,643.09c-.76,0-2.47.4-5.13,1.22-2.67.81-5.19,1.87-7.58,3.15-2.39,1.29-3.59,2.6-3.59,3.94,0,.51.26,1.06.79,1.66.52.6,1.06,2.33,1.6,5.18.25,21.84.38,47.67.38,77.51-2.75-7.61-7.15-19.15-13.2-34.65-11.01-28.21-16.73-43.52-17.17-45.95,0-.9-.54-1.47-1.63-1.68-3.04-.83-6.39-1.25-10.05-1.25-2.42,0-4.56.2-6.41.6-2.29.43-3.42,1.08-3.42,1.95,0,.33.17.74.51,1.25.34.51.76,1.08,1.25,1.71.48.64.98,1.29,1.49,1.98l.06,6.36c.11,5.18.16,11.51.16,19.01,0,14.99-.59,28.84-1.79,41.55-1.08,11.41-3.04,21.15-5.86,29.22-.18.51-.56.95-1.14,1.31-.76.61-1.14,1.32-1.14,2.12,0,.61,1.03,1.41,3.09,2.39,2.06.98,4.33,1.86,6.82,2.63,2.47.78,4.32,1.17,5.51,1.17,2.31,0,3.95-2.73,4.89-8.2.43-2.36.71-4.89.82-7.61.22-5.36.45-17.36.7-36.01l.33-18.96c5.62,12.06,11.1,23.41,16.46,34.06,4.09,8.08,6.81,13.67,8.15,16.78.43,1.12,1.72,2,3.85,2.61,2.54.65,5.16,1.43,7.88,2.34,4.74,1.63,7.82,2.44,9.23,2.44.59,0,1.01-.2,1.28-.57.27-.38.4-.7.4-.95v-2.99c0-22.92,1.2-46.73,3.59-71.42,1.05-10.1,1.58-18.21,1.58-24.33l.05-2.78c0-1.52-.07-2.93-.22-4.23-.22-1.71-1.06-2.55-2.55-2.55Z"/>
        <path class="cls-2" d="M660.84,755.14c-.07,0-.11-.04-.11-.11-3.51-3.51-5.5-7.77-5.94-12.77-.46-5-.68-8.87-.68-11.62,0-5.07.4-10.43,1.19-16.07,1.23-8.76,2.88-16.95,4.95-24.56.11-.29.16-.54.16-.76,0-.14-.03-.3-.08-.48-.06-.18-.25-.4-.57-.65-.33-.25-1.3-.72-2.93-1.39-1.63-.67-3.3-1.33-5-1.98-1.7-.65-2.75-.98-3.15-.98-.61,0-1.18,1.28-1.68,3.85l-.82,4.29c-.54-1.84-1.29-3.64-2.25-5.37-.96-1.74-2.18-3.17-3.64-4.3-1.47-1.12-3.25-1.68-5.35-1.68-3.8,0-7.27,1.44-10.43,4.32-3.15,2.88-5.86,6.65-8.15,11.32-2.28,4.67-4.09,9.82-5.43,15.45-1.34,5.63-2.09,10.14-2.25,13.55-.17,3.41-.25,5.71-.25,6.9,0,10.35,2.01,18.08,6.03,23.19,2.28,2.94,5.32,4.4,9.12,4.4,2.61,0,4.8-1.03,6.57-3.07,1.78-2.05,3.32-4.68,4.62-7.9,1.19-2.96,2.89-7.78,5.1-14.45,0,6.88,1.29,12.84,3.88,17.87,2.59,5.03,5.58,7.55,8.99,7.55,1.16,0,2.43-.21,3.8-.63,1.37-.41,2.57-.9,3.59-1.44,1.01-.54,1.52-.99,1.52-1.36,0-.4-.27-.77-.82-1.14ZM636.11,733.6c-1.72,5.49-3.59,10.1-5.63,13.85-2.02,3.75-4.18,5.62-6.46,5.62-1.71,0-2.64-1.37-2.8-4.1-.17-2.73-.25-4.74-.25-6,0-9.09,1.48-19.48,4.45-31.17,1.59-6.31,3.46-11.62,5.62-15.94s4.39-6.49,6.71-6.49c1.48,0,2.26.56,2.34,1.68.07,1.12.11,1.9.11,2.34,0,3.15-1,7.28-2.99,12.39-1.01,2.75-1.87,4.61-2.55,5.57-.69.95-1.03,1.73-1.03,2.31,0,1.16,2.41,2.28,7.22,3.37-1.45,5.57-3.03,11.11-4.75,16.59Z"/>
        <path class="cls-2" d="M695.83,680.56c-1.96,0-3.68.7-5.16,2.1-1.48,1.39-2.77,3.21-3.85,5.46-1.08,2.24-2,4.71-2.72,7.38,0-14.23-.17-25.12-.51-32.67-.35-7.55-.85-12.73-1.5-15.56-.65-2.83-1.46-4.24-2.44-4.24-1.52,0-3.33.61-5.43,1.82-2.1,1.21-3.99,2.47-5.68,3.77-1.68,1.3-2.74,2.21-3.17,2.71-.18.22-.27.51-.27.87,0,.77.29,1.61.87,2.55,2.36,3.55,4.27,11.42,5.76,23.63.83,6.66,1.24,14.88,1.24,24.66,0,20.31-1.61,36.48-4.83,48.5-.07.22-.11.46-.11.71,0,2.31,1.66,4.25,5,5.81,2.24,1.09,5.72,1.63,10.43,1.63.76,0,1.21-.16,1.36-.46.14-.31.22-.67.22-1.06l-.11-1.03c-.22-1.31-.38-3.06-.49-5.27,3.59,5.21,9,7.82,16.24,7.82,3.62,0,6.87-1.44,9.75-4.32,2.88-2.89,5.29-6.67,7.22-11.38,1.93-4.71,3.21-9.3,3.83-13.77.61-4.48.93-8.39.93-11.76,0-8.47-1.36-15.87-4.08-22.21-4.56-10.46-12.05-15.7-22.48-15.7ZM704.41,747.16c-1.09,4.48-2.65,6.73-4.67,6.73-2.54,0-4.43-.95-5.68-2.85-1.25-1.9-2.03-3.96-2.34-6.17-.31-2.21-.46-4.14-.46-5.81,0-3.07.27-5.37.81-6.9.29-.87.44-1.55.44-2.06v-.11c0-.43-.19-.74-.55-.93-.4-.25-1.5-.51-3.31-.76-1.52-.22-2.49-.33-2.93-.33v-2.72c0-14.92,1.61-25.71,4.83-32.37,1.74-3.48,3.88-5.22,6.41-5.22,2.24,0,4.1,2.26,5.56,6.77,1.47,4.5,2.48,9.61,3.04,15.32.56,5.71.85,11.01.85,15.94,0,8.91-.67,16.06-2.01,21.46Z"/>
        <path class="cls-2" d="M768.17,676.81c.58-1.08,2.54-2.19,5.86-3.31,1.49-.43,2.78-.93,3.88-1.47,1.11-.54,1.66-1.25,1.66-2.12,0-.29-.17-.59-.51-.93-.35-.33-.87-.48-1.61-.48h-1.3c-6.73,0-14.9-.38-24.49-1.14,1.52-8.04,2.57-13.15,3.15-15.31.18-.83.28-1.41.28-1.74,0-.44-.25-.91-.76-1.42-1.53-1.48-3.66-2.73-6.41-3.75-3.59-1.37-6.48-2.06-8.69-2.06-1.41,0-2.19.33-2.34.98,0,.98.09,2.39.25,4.24.17,1.84.28,3.51.35,5,.07,1.48.11,2.59.11,3.31,0,1.41-.07,2.77-.22,4.07l-.49,5.32c-5.25-.65-8.2-1.23-8.85-1.74-.61-.76-1.36-1.14-2.23-1.14-1.19,0-2.46,1.81-3.8,5.43-.76,2.14-1.17,5.37-1.24,9.67,0,.55.42,1.13,1.27,1.74.85.61,1.87.93,3.07.93,3.08,0,6.67-.19,10.76-.55-1.02,18.76-1.53,38.02-1.53,57.8,0,10.86.14,16.86.43,17.98.51,1.95,1.42,4.14,2.72,6.54,1.3,2.41,2.69,4.53,4.16,6.36,1.46,1.83,2.63,2.74,3.5,2.74.14,0,.29-.1.43-.3.14-.2.25-.4.33-.63.07-.22.11-.4.11-.54-.33-9.09-.48-17.66-.48-25.74,0-9.81.25-18.88.76-27.21.87-15.29,2.06-28.03,3.59-38.24,4.71-.43,9.28-.65,13.74-.65,2.47,0,3.98-.55,4.56-1.63Z"/>
        <path class="cls-2" d="M812.92,755.14c-.07,0-.11-.04-.11-.11-3.51-3.51-5.5-7.77-5.94-12.77-.46-5-.68-8.87-.68-11.62,0-5.07.4-10.43,1.19-16.07,1.23-8.76,2.88-16.95,4.95-24.56.11-.29.16-.54.16-.76,0-.14-.02-.3-.08-.48-.05-.18-.25-.4-.57-.65-.33-.25-1.3-.72-2.93-1.39-1.63-.67-3.3-1.33-5-1.98-1.71-.65-2.75-.98-3.15-.98-.61,0-1.18,1.28-1.68,3.85l-.82,4.29c-.54-1.84-1.29-3.64-2.25-5.37-.96-1.74-2.18-3.17-3.64-4.3-1.46-1.12-3.25-1.68-5.35-1.68-3.8,0-7.27,1.44-10.43,4.32-3.15,2.88-5.86,6.65-8.14,11.32-2.29,4.67-4.09,9.82-5.44,15.45-1.34,5.63-2.09,10.14-2.25,13.55-.17,3.41-.25,5.71-.25,6.9,0,10.35,2.01,18.08,6.03,23.19,2.28,2.94,5.32,4.4,9.13,4.4,2.6,0,4.79-1.03,6.57-3.07,1.78-2.05,3.32-4.68,4.62-7.9,1.19-2.96,2.9-7.78,5.11-14.45,0,6.88,1.29,12.84,3.88,17.87,2.59,5.03,5.59,7.55,8.99,7.55,1.16,0,2.43-.21,3.8-.63,1.37-.41,2.57-.9,3.59-1.44,1.01-.54,1.52-.99,1.52-1.36,0-.4-.27-.77-.82-1.14ZM788.19,733.6c-1.72,5.49-3.59,10.1-5.62,13.85-2.03,3.75-4.19,5.62-6.46,5.62-1.71,0-2.64-1.37-2.8-4.1-.17-2.73-.25-4.74-.25-6,0-9.09,1.48-19.48,4.45-31.17,1.59-6.31,3.46-11.62,5.62-15.94,2.16-4.32,4.4-6.49,6.71-6.49,1.48,0,2.26.56,2.34,1.68.07,1.12.11,1.9.11,2.34,0,3.15-1,7.28-2.99,12.39-1.01,2.75-1.87,4.61-2.55,5.57-.69.95-1.03,1.73-1.03,2.31,0,1.16,2.41,2.28,7.22,3.37-1.45,5.57-3.03,11.11-4.75,16.59Z"/>
        <path class="cls-2" d="M858.93,676.81c.58-1.08,2.53-2.19,5.86-3.31,1.48-.43,2.78-.93,3.88-1.47,1.11-.54,1.66-1.25,1.66-2.12,0-.29-.17-.59-.51-.93-.35-.33-.88-.48-1.61-.48h-1.3c-6.74,0-14.9-.38-24.5-1.14,1.53-8.04,2.57-13.15,3.15-15.31.18-.83.27-1.41.27-1.74,0-.44-.25-.91-.76-1.42-1.52-1.48-3.66-2.73-6.41-3.75-3.59-1.37-6.49-2.06-8.69-2.06-1.41,0-2.19.33-2.34.98,0,.98.08,2.39.25,4.24.16,1.84.28,3.51.35,5,.07,1.48.11,2.59.11,3.31,0,1.41-.07,2.77-.22,4.07l-.49,5.32c-5.25-.65-8.2-1.23-8.85-1.74-.61-.76-1.36-1.14-2.23-1.14-1.2,0-2.47,1.81-3.8,5.43-.76,2.14-1.18,5.37-1.25,9.67,0,.55.43,1.13,1.28,1.74.85.61,1.87.93,3.07.93,3.08,0,6.66-.19,10.75-.55-1.01,18.76-1.52,38.02-1.52,57.8,0,10.86.14,16.86.43,17.98.51,1.95,1.41,4.14,2.72,6.54,1.3,2.41,2.69,4.53,4.15,6.36,1.47,1.83,2.64,2.74,3.51,2.74.14,0,.29-.1.43-.3.14-.2.25-.4.33-.63.07-.22.11-.4.11-.54-.33-9.09-.49-17.66-.49-25.74,0-9.81.25-18.88.77-27.21.87-15.29,2.06-28.03,3.58-38.24,4.71-.43,9.29-.65,13.75-.65,2.46,0,3.98-.55,4.56-1.63Z"/>
        <path class="cls-2" d="M934.64,710.03c.14.04.29.09.38.17-.09-.08-.24-.13-.38-.17Z"/>
        <path class="cls-2" d="M1000.31,713.06c-2.01-4.17-4.37-8.15-7.19-11.84-5.05-6.59-11.03-12.08-18.69-15.5-6.5-2.9-13.26-3.88-20.32-2.5-10.26,1.99-18.35,7.51-25.07,15.29-2.25,2.6-4.27,5.37-6.07,8.29.3-.24.59-.33.86-.33-.27,0-.56.09-.86.33-3.05,4.82-5.76,9.81-8.1,14.95-1.01,2.18-1.94,4.4-2.81,6.65-.12.3-.23.6-.35.9-1.79,4.48-4.45,8.61-7.96,12.38l.43-8.69c.36-7.2.54-14.12.54-20.75,0-8.94-.83-14.83-2.5-17.66-2.75-4.01-4.96-6.02-6.62-6.02-1.3,0-2.74,1.52-4.32,4.56-1.58,3.04-3.22,6.9-4.92,11.57-1.7,4.67-3.41,9.57-5.13,14.71-1.72,5.14-3.39,9.94-5.03,14.4-1.63,4.45-3.17,8.1-4.64,10.94-1.47,2.84-2.8,4.27-3.99,4.27-.9,0-1.65-1.5-2.23-4.48-.58-2.99-.99-6.59-1.22-10.83-.24-4.24-.35-8.22-.35-11.95,0-7.82.6-15.1,1.79-21.83,1.23-7.03,2.43-11.1,3.59-12.23.76-.65,1.14-1.17,1.14-1.57,0-.43-.69-1.11-2.07-2.01-3.66-2.39-7.02-3.59-10.1-3.59l-.6-.06c-.33,0-.72.08-1.19.22-.47.15-1.02.66-1.66,1.53-.64.87-1.19,2.31-1.68,4.32-.48,2.01-.9,4.81-1.22,8.39-.33,3.59-.48,8.24-.48,13.96,0,9.92,1.06,18.71,3.17,26.37,2.12,7.66,4.79,13.65,8.04,17.98,3.24,4.32,6.51,6.49,9.81,6.49,1.84,0,3.55-1.11,5.13-3.34,1.58-2.23,3.06-5.03,4.45-8.4,1.4-3.37,2.71-6.83,3.94-10.37,1.48-4.35,2.93-8.1,4.35-11.24,1.41-3.15,2.82-4.73,4.24-4.73s2.23,3.95,2.23,11.84c0,6.08-.37,11.19-1.09,15.31-3.77,3.51-7.35,6.77-10.75,9.78-12.96,11.11-19.59,18.76-19.88,22.92l-.22,3.47c0,5.18,3.96,11.23,11.89,18.14,1.99,1.74,3.66,2.61,5,2.61,3.22,0,6.28-2.26,9.18-6.79,2.9-4.53,5.38-10.37,7.44-17.52,2.07-7.15,3.51-14.79,4.35-22.94.06-.62,1.47-1.15,1.94-1.43,9.42-9.27,14.52-17.95,18.67-30.57.4-1.27.82-2.53,1.29-3.77.08-.21.16-.42.24-.63,1.63-4.27,3.58-8.35,5.78-12.37.02-.05.04-.09.07-.14-.02.05-.04.1-.07.15.11-.17.22-.33.32-.49,1.42-2.17,2.83-4.32,4.65-6.2,6.18-6.38,13.57-9.83,22.62-9.23,6.77.45,12.97,2.57,18.81,5.97,2.42,1.41,4.66,3.05,6.75,4.88.48.42,1.01.8,1.36,1.5-2.13-.82-4.13-1.66-6.18-2.36-9.67-3.33-19.49-4.97-29.64-2.39-5.4,1.37-9.9,4.24-13.7,8.26-.19.2-.34.39-.41.59-.14.33-.09.68.27,1.15,6.21,8.3,14.63,12.38,24.83,13.13,6.17.46,12.1-.96,18.04-2.24,6.5-1.4,13.02-2.57,19.7-2.15,1.74.11,3.49.24,5.28.36-.43-2.72-1.73-5.06-2.86-7.42ZM885.38,783.6c-2.14,4.85-4.09,8.09-5.84,9.72-1.76,1.63-3.21,2.44-4.37,2.44-1.09,0-2.15-.48-3.21-1.47-1.16-1.23-1.74-2.57-1.74-4.01,0-3.22,2.9-7.5,8.69-12.82,3.69-3.33,7.82-6.75,12.39-10.27-1.81,6.08-3.79,11.55-5.92,16.41ZM925.84,707.31c-.25-.07-.48-.21-.73-.36.25.14.48.28.73.35.48.14.95.31,1.43.49-.48-.17-.95-.35-1.43-.48Z"/>
      </g>
    </g>
  </g>
</svg>