<svg width="28" height="28" viewBox="0 0 28 28" fill="none" xmlns="http://www.w3.org/2000/svg">
<path d="M9.309 3.24998L9.311 3.25198L9.314 3.25598L9.326 3.26898C9.39009 3.3408 9.45244 3.41416 9.513 3.48898C9.638 3.64098 9.815 3.86198 10.029 4.14698C10.6142 4.93023 11.1547 5.74586 11.648 6.58998C12.6314 8.26337 13.4205 10.0436 14 11.896C14.5795 10.0436 15.3686 8.26337 16.352 6.58998C16.8453 5.74586 17.3858 4.93023 17.971 4.14698C18.1961 3.84706 18.4306 3.55425 18.674 3.26898L18.686 3.25598L18.689 3.25198L18.69 3.25098L18.691 3.24998C18.7923 3.13677 18.9255 3.05698 19.0731 3.02116C19.2207 2.98533 19.3757 2.99517 19.5176 3.04937C19.6595 3.10357 19.7816 3.19957 19.8677 3.32468C19.9539 3.44978 20 3.59809 20 3.74998V13.114C20.4378 12.132 20.9799 11.2 21.617 10.334C22.0675 9.72014 22.5817 9.15567 23.151 8.64998C23.3561 8.47091 23.5715 8.30396 23.796 8.14998L23.84 8.12098L23.855 8.11198L23.86 8.10898L23.862 8.10798H23.863C23.9768 8.03979 24.1067 8.00296 24.2393 8.00125C24.372 7.99954 24.5027 8.033 24.6183 8.09823C24.7338 8.16347 24.83 8.25814 24.897 8.37262C24.9641 8.48711 24.9996 8.61731 25 8.74998V21.25C25 22.2445 24.6049 23.1984 23.9017 23.9016C23.1984 24.6049 22.2446 25 21.25 25H6.75C5.75544 25 4.80161 24.6049 4.09835 23.9016C3.39509 23.1984 3 22.2445 3 21.25V8.74998C3.00001 8.61725 3.03524 8.4869 3.1021 8.37224C3.16896 8.25757 3.26505 8.16271 3.38056 8.09733C3.49607 8.03195 3.62686 7.99839 3.75958 8.00009C3.8923 8.00178 4.0222 8.03867 4.136 8.10698L4.138 8.10798L4.14 8.10898L4.145 8.11198L4.16 8.12198C4.22565 8.16282 4.2897 8.20619 4.352 8.25198C4.475 8.34198 4.645 8.47198 4.849 8.64998C5.257 9.00698 5.802 9.55298 6.383 10.333C6.919 11.053 7.484 11.97 8 13.114V3.74998C8 3.59809 8.04612 3.44978 8.13226 3.32468C8.2184 3.19957 8.34049 3.10357 8.48238 3.04937C8.62427 2.99517 8.77927 2.98533 8.92688 3.02116C9.07449 3.05698 9.20774 3.13677 9.309 3.24998ZM4.5 10.406V21.25C4.5 21.8467 4.73705 22.419 5.15901 22.841C5.58097 23.2629 6.15326 23.5 6.75 23.5H21.25C21.8467 23.5 22.419 23.2629 22.841 22.841C23.2629 22.419 23.5 21.8467 23.5 21.25V10.406C23.288 10.6346 23.0613 10.909 22.82 11.229C21.797 12.603 20.594 14.869 19.99 18.377C19.9593 18.5632 19.8595 18.731 19.7105 18.847C19.5616 18.9629 19.3744 19.0183 19.1863 19.0023C18.9982 18.9863 18.8231 18.8999 18.6959 18.7605C18.5687 18.621 18.4987 18.4387 18.5 18.25V5.98998C18.235 6.38398 17.945 6.83798 17.648 7.34698C16.491 9.32498 15.224 12.108 14.742 15.36C14.7158 15.538 14.6264 15.7007 14.4902 15.8184C14.354 15.936 14.18 16.0007 14 16.0007C13.82 16.0007 13.646 15.936 13.5098 15.8184C13.3736 15.7007 13.2842 15.538 13.258 15.36C12.776 12.108 11.508 9.32498 10.353 7.34698C10.0827 6.88599 9.79821 6.43344 9.5 5.98998V18.25C9.50127 18.4387 9.43132 18.621 9.30411 18.7605C9.1769 18.8999 9.00179 18.9863 8.81371 19.0023C8.62564 19.0183 8.43844 18.9629 8.28946 18.847C8.14049 18.731 8.0407 18.5632 8.01 18.377C7.406 14.868 6.203 12.603 5.18 11.229C4.93867 10.909 4.712 10.6346 4.5 10.406Z" fill="black"/>
</svg>
