<svg width="24" height="24" viewBox="0 0 24 24" fill="none" xmlns="http://www.w3.org/2000/svg">
<path d="M7.22696 13.7735C6.12256 12.6694 5.43519 11.2164 5.28197 9.66228C5.12874 8.10813 5.51915 6.54894 6.38666 5.25038C7.25417 3.95182 8.54511 2.99424 10.0395 2.5408C11.5339 2.08736 13.1393 2.16612 14.5821 2.76366C16.025 3.3612 17.216 4.44055 17.9522 5.81779C18.6885 7.19504 18.9244 8.78495 18.6197 10.3166C18.3151 11.8483 17.4888 13.227 16.2817 14.2177C15.0745 15.2085 13.5611 15.75 11.9995 15.75H8.49946C8.22246 15.75 7.99946 15.973 7.99946 16.25V17.25C7.99946 17.527 8.22246 17.75 8.49946 17.75H14.9995C15.2765 17.75 15.4995 17.973 15.4995 18.25V19.25C15.4995 19.527 15.2765 19.75 14.9995 19.75H9.24946C8.97246 19.75 8.74946 19.973 8.74946 20.25V21.25C8.74946 21.527 8.97246 21.75 9.24946 21.75H14.7495" stroke="black" stroke-width="0.5" stroke-linecap="round" stroke-linejoin="round"/>
<path d="M16.25 9C16.25 9.84057 16.0007 10.6623 15.5337 11.3612C15.0668 12.0601 14.403 12.6048 13.6264 12.9265C12.8498 13.2482 11.9953 13.3323 11.1709 13.1683C10.3464 13.0044 9.58917 12.5996 8.9948 12.0052C8.40042 11.4108 7.99565 10.6536 7.83166 9.82913C7.66768 9.00471 7.75184 8.15018 8.07351 7.3736C8.39519 6.59701 8.93992 5.93325 9.63883 5.46625C10.3377 4.99926 11.1594 4.75 12 4.75" stroke="black" stroke-width="0.5" stroke-linecap="round" stroke-linejoin="round"/>
</svg>
